<svg width="454" height="219" viewBox="0 0 454 219" fill="none" xmlns="http://www.w3.org/2000/svg">
<path d="M430.85 161.71H453.55V158.49C447.77 158.05 443.92 157.08 441.99 155.6C439.73 153.95 438.6 149.84 438.6 143.29V68.1C438.6 62.49 439.29 58.77 440.67 56.96C442.27 54.92 446.56 53.57 453.55 52.91V49.69H430.85V161.71Z" fill="black"/>
<path d="M0 49.68V52.91C1.09 53.01 2.16 53.12 3.21 53.23C7.5 53.79 10.37 54.69 11.81 55.96C13.84 57.66 14.86 61.71 14.86 68.1V141.39C14.86 145.36 14.69 148.24 14.38 150.07C14.03 152 13.48 153.52 12.71 154.62C11.12 156.76 6.88 158.05 0 158.5V161.72H22.17V49.68H0Z" fill="black"/>
<path d="M97.97 161.71H120.68V158.49C114.89 158.05 111.03 157.08 109.11 155.59C106.85 153.95 105.74 149.85 105.74 143.29V68.1C105.74 62.49 106.41 58.77 107.79 56.96C109.39 54.92 113.68 53.57 120.68 52.91V49.68H97.97V161.71Z" fill="black"/>
<path d="M71.88 49.68V52.91C78.1 53.46 82.07 54.47 83.78 55.96C85.81 57.66 86.83 61.71 86.83 68.1V100.99H35.51V68.1C35.51 62.49 36.21 58.77 37.59 56.96C39.13 54.92 43.39 53.57 50.39 52.91V49.68H28.12V161.71H50.4V158.49C44.78 158.05 41 157.14 39.08 155.77L38.93 155.6C36.66 153.96 35.52 149.86 35.52 143.3V108.43H86.84V141.39C86.84 145.36 86.65 148.24 86.26 150.07C85.93 152 85.37 153.52 84.6 154.62C83.01 156.76 78.77 158.05 71.88 158.5V161.72H93.71V49.68H71.88Z" fill="black"/>
<path d="M332.86 49.68V52.9C333.95 53.01 335.03 53.12 336.08 53.24C340.38 53.79 343.24 54.7 344.68 55.96C346.71 57.66 347.72 61.71 347.72 68.1V141.39C347.72 145.36 347.57 148.24 347.24 150.07C346.91 152 346.36 153.52 345.59 154.62C343.99 156.77 339.75 158.05 332.87 158.5V161.72H355.04V49.68H332.86Z" fill="black"/>
<path d="M404.76 49.68V52.9C410.98 53.46 414.95 54.47 416.66 55.96C418.69 57.66 419.71 61.71 419.71 68.1V100.99H368.41V68.1C368.41 62.49 369.08 58.77 370.47 56.96C372.01 54.92 376.29 53.57 383.28 52.91V49.69H361V161.72H383.28V158.5C377.66 158.06 373.89 157.15 371.95 155.78L371.8 155.61C369.54 153.96 368.41 149.85 368.41 143.3V108.43H419.71V141.39C419.71 145.36 419.52 148.24 419.13 150.07C418.8 152 418.25 153.52 417.48 154.62C415.87 156.77 411.64 158.05 404.76 158.5V161.72H426.59V49.68H404.76Z" fill="black"/>
<path d="M317.56 6.28999L326.75 7.57001C327.17 7.57001 327.6 7.67 328.01 7.88C336.04 9.89 340.07 14.01 340.07 20.24C340.07 26.79 338.32 34.93 334.83 44.65L294.27 154.65L251.3 44.01L247.5 34.18C244.23 26.68 242.59 21.19 242.59 17.69C242.59 10.29 250.94 6.49 267.63 6.28V0.100006H220.74L294.48 200.85C295.19 198.73 295.86 196.71 296.48 194.88C310.76 150.94 330.23 95.77 354.97 29.42C357.29 22.66 359.57 17.95 361.79 15.31C364.95 11.3 371.65 8.29 381.9 6.27V0.0899963H317.55V6.28999H317.56Z" fill="black"/>
<path d="M177.67 0.110001V6.28999C185.91 6.49999 191.78 7.72 195.28 9.94C199.38 12.69 204.46 21.2 210.47 35.45L221.09 62.07L186.4 153.69L139.64 31.65C137.32 25.63 136.15 20.66 136.15 16.75L136.79 13.1C138.28 9.19001 145.08 6.92 157.22 6.28V0.100006H115.89L187.37 194.68L228.7 81.25L280.54 218.66H285.45C286.62 214.96 287.71 211.57 288.76 208.38L212.27 0.100006H177.67V0.110001Z" fill="black"/>
<path d="M74.05 0.110001V6.28999C75.64 6.49999 77.06 6.70999 78.33 6.92999C82.66 7.56999 86.21 9 88.96 11.2C94.23 15.11 100.42 26.15 107.5 44.32L170.11 218.67H175.03L181.16 201.83L107.07 0.110001H74.05Z" fill="black"/>
</svg>
